:SAMPLES-PER-SECOND 30
:FULLY-SPECIFIED
:DEGREES
733
root  -40.1998 38.7077 -27.9532 -9.54481 -44.696 3.39253
RightUpLeg  -17.0177 -13.0838 -17.6235
RightLeg  2.82351 9.96544 -0.60872
RightFoot  -3.9187 -0.822534 12.1954
RightToes  0.00048216 0.542163 -0.142577
Spine  14 1.48931 1.47271
Spine1  9.76333 2.99683 -4.38419
HEad  14.5417 -0.0811135 -5.80615
LeftShoulder1  7.59655 -11.4678 -44.1733
LeftArm  -16.2743 22.8899 -26.1262
LeftForeArm  44.0003 -58.0243 -14.0697
LeftHand  -0.25398 0.0180481 5.50724
RightShoulder  5.13074 8.82694 35.6365
RightArm  -4.50356 -20.4195 31.6923
RightForeArm  54.9037 78.4446 67.0347
RightHand  -5.55769 13.7035 -33.3057
LeftUpLeg  5.27233 -9.23487 -8.79839
LeftLeg  30.4859 2.42509 1.89917
LeftFoot  -24.1591 0.723932 5.13993
LeftToes  1.06246e-005 4.65856e-005 -8.18502e-006
734
root  -41.8961 38.4619 -28.0478 -8.78994 -41.7549 3.31541
RightUpLeg  -17.8505 -11.681 -16.9143
RightLeg  5.67327 13.6469 -0.2191
RightFoot  -1.6338 -1.17621 13.5925
RightToes  0.00048216 0.542163 -0.142577
Spine  14.5194 1.92864 1.29245
Spine1  10.0106 3.4197 -4.19308
HEad  13.9615 -1.89918 -5.5309
LeftShoulder1  7.62153 -11.5109 -44.1927
LeftArm  -18.0023 22.9288 -26.0675
LeftForeArm  44.266 -57.8156 -13.9149
LeftHand  -0.25398 0.0180481 5.50724
RightShoulder  5.35243 9.2144 36.0999
RightArm  -4.92282 -18.4337 31.7357
RightForeArm  44.7256 77.3854 57.6628
RightHand  -5.91109 14.4799 -33.9883
LeftUpLeg  5.70839 -11.2963 -6.94513
LeftLeg  32.1199 1.34105 1.2678
LeftFoot  -25.9578 0.586394 3.37658
LeftToes  1.06246e-005 4.65856e-005 -8.18502e-006
735
root  -43.6234 38.2198 -28.2068 -8.00394 -38.5249 2.96403
RightUpLeg  -18.7761 -8.09047 -16.3858
RightLeg  10.3637 13.4072 0.608573
RightFoot  3.69906 -1.93255 14.7686
RightToes  0.00048216 0.542163 -0.142577
Spine  16.1772 2.05184 1.44053
Spine1  9.5494 3.63636 -4.2032
HEad  13.1365 -3.4109 -4.63766
LeftShoulder1  7.56865 -11.5496 -43.7519
LeftArm  -18.9644 23.5112 -25.5556
LeftForeArm  44.4766 -57.6708 -13.8056
LeftHand  -0.25398 0.0180481 5.50724
RightShoulder  5.59878 9.50373 37.0331
RightArm  -4.92577 -15.5355 32.2498
RightForeArm  33.3877 75.3343 46.3763
RightHand  -6.24465 15.2024 -34.601
LeftUpLeg  5.44301 -13.5761 -4.50287
LeftLeg  34.6873 0.124505 0.443859
LeftFoot  -26.8465 0.171653 0.0495056
LeftToes  1.06246e-005 4.65856e-005 -8.18502e-006
736
root  -45.1875 38.0273 -28.3754 -6.48129 -34.4575 1.36534
RightUpLeg  -19.9238 -5.71752 -15.6609
RightLeg  15.9097 9.73853 2.16823
RightFoot  7.29546 -2.40174 14.8869
RightToes  0.00048216 0.542163 -0.142577
Spine  18.9683 1.09338 4.31715
Spine1  8.60732 3.54021 -5.50041
HEad  11.8534 -4.84347 -3.70527
LeftShoulder1  7.54052 -11.5991 -43.4302
LeftArm  -19.3152 23.6404 -24.7317
LeftForeArm  44.8637 -56.9708 -13.3558
LeftHand  -0.25398 0.0180481 5.50724
RightShoulder  5.75925 9.65317 37.7401
RightArm  -5.28045 -11.8502 33.5345
RightForeArm  23.5116 72.2012 36.1583
RightHand  -6.40639 15.5444 -34.8922
LeftUpLeg  3.0229 -15.802 -0.8487
LeftLeg  39.8252 -0.224475 0.200654
LeftFoot  -25.1142 -0.296947 -3.79702
LeftToes  1.06246e-005 4.65856e-005 -8.18502e-006
737
root  -46.5038 37.9513 -28.5242 -4.20228 -29.8963 -0.981391
RightUpLeg  -21.4023 -9.98836 -13.123
RightLeg  21.3465 8.78016 3.6476
RightFoot  6.38859 -2.075 13.4954
RightToes  0.00048216 0.542163 -0.142577
Spine  21.2544 -0.393941 9.42301
Spine1  8.41034 3.52462 -7.28626
HEad  9.89555 -6.84642 -3.52484
LeftShoulder1  7.72765 -11.8421 -43.8225
LeftArm  -19.568 22.4924 -24.6986
LeftForeArm  45.9564 -55.1964 -12.2832
LeftHand  -0.25398 0.0180481 5.50724
RightShoulder  5.74604 9.85052 37.0204
RightArm  -6.49613 -7.70935 35.0847
RightForeArm  15.4142 68.5422 28.9805
RightHand  -6.58627 15.977 -35.1249
LeftUpLeg  -2.27152 -16.6116 3.42086
LeftLeg  47.1434 1.71374 2.48647
LeftFoot  -19.9131 -0.225987 -4.28756
LeftToes  1.06246e-005 4.65856e-005 -8.18502e-006
738
root  -47.6528 38.0163 -28.7097 -2.11531 -25.7484 -2.5862
RightUpLeg  -22.6261 -16.1988 -10.1067
RightLeg  24.9617 9.26513 4.4512
RightFoot  3.47687 -1.49235 11.6266
RightToes  0.00048216 0.542163 -0.142577
Spine  22.6483 -1.00073 13.6908
Spine1  9.19314 4.01886 -7.53532
HEad  7.65597 -9.91842 -3.89963
LeftShoulder1  8.11754 -12.3553 -44.5842
LeftArm  -19.435 20.6759 -26.0672
LeftForeArm  47.3846 -52.8507 -11.0101
LeftHand  -0.25398 0.0180481 5.50724
RightShoulder  5.61591 10.204 35.0093
RightArm  -8.19087 -3.19247 35.6648
RightForeArm  8.02069 64.8506 24.3142
RightHand  -6.87451 16.7076 -35.4228
LeftUpLeg  -8.70314 -15.0874 6.4229
LeftLeg  53.945 4.96415 7.76472
LeftFoot  -13.7684 0.0694735 -0.379114
LeftToes  1.06246e-005 4.65856e-005 -8.18502e-006
739
root  -48.764 38.2538 -28.9707 -0.980533 -22.7739 -2.48349
RightUpLeg  -23.1998 -18.928 -8.46714
RightLeg  26.0242 8.47516 4.25724
RightFoot  1.98705 -1.14906 9.9488
RightToes  0.00048216 0.542163 -0.142577
Spine  24.3765 -0.397314 15.1573
Spine1  9.77762 4.94642 -6.39711
HEad  5.59223 -13.2878 -4.01977
LeftShoulder1  8.50349 -12.9398 -45.0672
LeftArm  -18.2807 19.485 -27.8745
LeftForeArm  48.0682 -50.8689 -10.0873
LeftHand  -0.25398 0.0180481 5.50724
RightShoulder  5.55764 10.6276 33.3807
RightArm  -9.49887 2.26738 34.3924
RightForeArm  1.58519 60.6154 20.4381
RightHand  -7.236 17.6066 -35.7915
LeftUpLeg  -13.7069 -11.4099 6.79182
LeftLeg  57.4211 7.37891 12.6891
LeftFoot  -10.6935 0.0573925 3.38628
LeftToes  1.06246e-005 4.65856e-005 -8.18502e-006
740
root  -49.8774 38.6785 -29.2283 -0.422682 -20.6479 -1.10278
RightUpLeg  -23.2042 -19.1548 -8.04655
RightLeg  25.25 6.80388 3.26507
RightFoot  2.14843 -0.962755 8.25542
RightToes  0.00048216 0.542163 -0.142577
Spine  26.5241 0.381183 14.8369
Spine1  9.79454 5.79516 -5.84248
HEad  3.68301 -16.0006 -3.42469
LeftShoulder1  8.80608 -13.4004 -45.4123
LeftArm  -16.3115 19.2847 -28.7198
LeftForeArm  47.9624 -49.5386 -9.55634
LeftHand  -0.25398 0.0180481 5.50724
RightShoulder  5.65394 10.9839 33.0788
RightArm  -10.1771 9.38372 31.8024
RightForeArm  -2.3936 54.802 16.3403
RightHand  -7.73506 18.795 -36.3243
LeftUpLeg  -16.676 -6.78623 4.86235
LeftLeg  56.6082 8.19606 13.6419
LeftFoot  -11.1221 0.0572373 3.33251
LeftToes  1.06246e-005 4.65856e-005 -8.18502e-006
741
root  -50.9044 39.149 -29.3987 0.572317 -18.2648 0.369751
RightUpLeg  -23.247 -19.8493 -7.77857
RightLeg  23.8495 5.10259 2.23078
RightFoot  2.19129 -0.774549 6.64042
RightToes  0.00048216 0.542163 -0.142577
Spine  27.7927 0.478349 14.8961
Spine1  10.0505 6.1492 -6.35241
HEad  1.75833 -17.9294 -2.21238
LeftShoulder1  9.0739 -13.7166 -45.9532
LeftArm  -14.2222 19.4134 -28.6136
LeftForeArm  47.9383 -48.2931 -9.08198
LeftHand  -0.25398 0.0180481 5.50724
RightShoulder  5.74203 11.1613 33.2085
RightArm  -10.9249 17.5546 29.2057
RightForeArm  -3.29809 47.4854 12.4804
RightHand  -8.36908 20.3119 -36.9174
LeftUpLeg  -18.8915 -2.8011 1.79752
LeftLeg  52.5546 7.56257 10.9518
LeftFoot  -12.2725 0.0852986 1.25049
LeftToes  1.06246e-005 4.65856e-005 -8.18502e-006
742
root  -51.8147 39.5541 -29.5041 2.2519 -15.2338 1.49156
RightUpLeg  -23.5728 -21.8893 -7.16826
RightLeg  22.222 3.82956 1.54352
RightFoot  1.86017 -0.614818 5.42004
RightToes  0.00048216 0.542163 -0.142577
Spine  27.9143 0.205654 15.8019
Spine1  10.633 6.19227 -6.88251
HEad  -0.118868 -20.0292 -1.26494
LeftShoulder1  9.28157 -13.9558 -46.3743
LeftArm  -12.2323 19.3953 -28.6378
LeftForeArm  47.8985 -46.4237 -8.41324
LeftHand  -0.25398 0.0180481 5.50724
RightShoulder  5.64786 11.1096 32.7019
RightArm  -12.4579 24.9564 26.9876
RightForeArm  -2.61381 40.1224 9.5859
RightHand  -8.90483 21.6967 -37.2279
LeftUpLeg  -20.9358 0.0121604 -1.77313
LeftLeg  46.5885 6.96222 8.20782
LeftFoot  -12.464 0.0798677 0.476893
LeftToes  1.06246e-005 4.65856e-005 -8.18502e-006
